# xmcd
#
# Track frame offsets:
#	150
#	16053
#	34890
#	51299
#	70251
#	89384
#	107271
#	120981
#	136003
#	153506
#	166868
#	184742
#
# Disc length: 2643 seconds
#
# Revision: 1
# Processed by: cddbd v1.5.1PL0 Copyright (c) Steve Scherf et al.
# Submitted via: audiograbber 1.83.01
#
DISCID=8c0a510c
DTITLE=Karin Meier - Floh and Co
DYEAR=1900
DGENRE=
TTITLE0=Floh and Co.
TTITLE1=Badezimmer Geschichten
TTITLE2=Hexen müssen hexen können
TTITLE3=Dumm gelaufen
TTITLE4=Trimm-Trampolin
TTITLE5=Was soll denn das?
TTITLE6=Max der Maulwurf
TTITLE7=Bauer Rübenstiel
TTITLE8=Im wilden, wilden Westen
TTITLE9=So ist sie, die Annelie
TTITLE10=Was soll denn das? (Karaoke)
TTITLE11=Maulwurf Max (Karaoke)
EXTD=
EXTT0=
EXTT1=
EXTT2=
EXTT3=
EXTT4=
EXTT5=
EXTT6=
EXTT7=
EXTT8=
EXTT9=
EXTT10=
EXTT11=
PLAYORDER=
